<svg width="43" height="45" viewBox="0 0 43 45" fill="none" xmlns="http://www.w3.org/2000/svg">
<mask id="path-1-inside-1_0_51" fill="white">
<path d="M23.9437 44.7349C27.7576 44.1442 31.3554 42.5824 34.3914 40.1997C37.4274 37.8169 39.7995 34.6933 41.2796 31.129C42.7597 27.5647 43.2981 23.6796 42.8431 19.8471C42.388 16.0147 40.9548 12.3637 38.6812 9.24508C36.4076 6.12648 33.3701 3.64514 29.8605 2.03954C26.351 0.433949 22.4874 -0.241915 18.6412 0.0769148C14.795 0.395745 11.0955 1.69855 7.89825 3.86011C4.70098 6.02166 2.11346 8.9693 0.384404 12.4197L4.5747 14.5195C5.94358 11.7879 7.99209 9.45428 10.5233 7.743C13.0546 6.03172 15.9835 5.0003 19.0284 4.74789C22.0734 4.49547 25.1322 5.03055 27.9106 6.30168C30.6891 7.57281 33.0939 9.53727 34.8939 12.0062C36.6939 14.4752 37.8285 17.3656 38.1888 20.3998C38.549 23.4339 38.1228 26.5097 36.951 29.3315C35.7792 32.1533 33.9013 34.6262 31.4977 36.5126C29.0941 38.3991 26.2457 39.6355 23.2263 40.1031L23.9437 44.7349Z"/>
</mask>
<path d="M23.9437 44.7349C27.7576 44.1442 31.3554 42.5824 34.3914 40.1997C37.4274 37.8169 39.7995 34.6933 41.2796 31.129C42.7597 27.5647 43.2981 23.6796 42.8431 19.8471C42.388 16.0147 40.9548 12.3637 38.6812 9.24508C36.4076 6.12648 33.3701 3.64514 29.8605 2.03954C26.351 0.433949 22.4874 -0.241915 18.6412 0.0769148C14.795 0.395745 11.0955 1.69855 7.89825 3.86011C4.70098 6.02166 2.11346 8.9693 0.384404 12.4197L4.5747 14.5195C5.94358 11.7879 7.99209 9.45428 10.5233 7.743C13.0546 6.03172 15.9835 5.0003 19.0284 4.74789C22.0734 4.49547 25.1322 5.03055 27.9106 6.30168C30.6891 7.57281 33.0939 9.53727 34.8939 12.0062C36.6939 14.4752 37.8285 17.3656 38.1888 20.3998C38.549 23.4339 38.1228 26.5097 36.951 29.3315C35.7792 32.1533 33.9013 34.6262 31.4977 36.5126C29.0941 38.3991 26.2457 39.6355 23.2263 40.1031L23.9437 44.7349Z" stroke="#4557A2" stroke-width="10" mask="url(#path-1-inside-1_0_51)"/>
</svg>
